HIERARCHY
ROOT Hips
{
	OFFSET -0.001795 -0.223333 0.028219
	CHANNELS 6 Xposition Yposition Zposition Zrotation Yrotation Xrotation 
	JOINT LeftUpLeg
	{
		OFFSET 0.069520 -0.091406 -0.006815
		CHANNELS 3 Zrotation Yrotation Xrotation
		JOINT LeftLeg
		{
			OFFSET 0.034277 -0.375199 -0.004496
			CHANNELS 3 Zrotation Yrotation Xrotation
			JOINT LeftFoot
			{
				OFFSET -0.013596 -0.397961 -0.043693
				CHANNELS 3 Zrotation Yrotation Xrotation
				JOINT LeftToe
				{
					OFFSET 0.026358 -0.055791 0.119288
					CHANNELS 3 Zrotation Yrotation Xrotation
					End Site
					{
						OFFSET 0.000000 0.000000 0.000000
					}
				}
			}
		}
	}
	JOINT RightUpLeg
	{
		OFFSET -0.067670 -0.090522 -0.004320
		CHANNELS 3 Zrotation Yrotation Xrotation
		JOINT RightLeg
		{
			OFFSET -0.038290 -0.382569 -0.008850
			CHANNELS 3 Zrotation Yrotation Xrotation
			JOINT RightFoot
			{
				OFFSET 0.015774 -0.398415 -0.042312
				CHANNELS 3 Zrotation Yrotation Xrotation
				JOINT RightToe
				{
					OFFSET -0.025372 -0.048144 0.123348
					CHANNELS 3 Zrotation Yrotation Xrotation
					End Site
					{
						OFFSET 0.000000 0.000000 0.000000
					}
				}
			}
		}
	}
	JOINT Spine
	{
		OFFSET -0.002533 0.108963 -0.026696
		CHANNELS 3 Zrotation Yrotation Xrotation
		JOINT Spine1
		{
			OFFSET 0.005487 0.135180 0.001092
			CHANNELS 3 Zrotation Yrotation Xrotation
			JOINT Spine2
			{
				OFFSET 0.001457 0.052922 0.025425
				CHANNELS 3 Zrotation Yrotation Xrotation
				JOINT Neck
				{
					OFFSET -0.002778 0.213870 -0.042857
					CHANNELS 3 Zrotation Yrotation Xrotation
					JOINT Head
					{
						OFFSET 0.005152 0.064970 0.051349
						CHANNELS 3 Zrotation Yrotation Xrotation
						End Site
						{
							OFFSET 0.000000 0.000000 0.000000
						}
					}
				}
				JOINT LeftShoulder
				{
					OFFSET 0.078845 0.121749 -0.034090
					CHANNELS 3 Zrotation Yrotation Xrotation
					JOINT LeftArm
					{
						OFFSET 0.090977 0.030469 -0.008868
						CHANNELS 3 Zrotation Yrotation Xrotation
						JOINT LeftForeArm
						{
							OFFSET 0.259612 -0.012772 -0.027456
							CHANNELS 3 Zrotation Yrotation Xrotation
							JOINT LeftHand
							{
								OFFSET 0.249234 0.008986 -0.001171
								CHANNELS 3 Zrotation Yrotation Xrotation
								End Site
								{
									OFFSET 0.000000 0.000000 0.000000
								}
							}
						}
					}
				}
				JOINT RightShoulder
				{
					OFFSET -0.081759 0.118833 -0.038615
					CHANNELS 3 Zrotation Yrotation Xrotation
					JOINT RightArm
					{
						OFFSET -0.096012 0.032551 -0.009143
						CHANNELS 3 Zrotation Yrotation Xrotation
						JOINT RightForeArm
						{
							OFFSET -0.253742 -0.013329 -0.021401
							CHANNELS 3 Zrotation Yrotation Xrotation
							JOINT RightHand
							{
								OFFSET -0.255298 0.007772 -0.005559
								CHANNELS 3 Zrotation Yrotation Xrotation
								End Site
								{
									OFFSET 0.000000 0.000000 0.000000
								}
							}
						}
					}
				}
			}
		}
	}
}
MOTION
Frames: 15
Frame Time: 0.050000
0.000754 0.946350 -0.003849 -3.078520 -7.656350 3.551601 2.047058 0.159369 2.192669 1.804218 0.090608 -6.030814 2.277066 6.851131 8.657578 0.000000 0.000000 0.000000 -0.320219 0.043863 -0.361349 1.398868 -0.242411 -4.731768 1.480648 -3.253455 12.078458 0.000000 0.000000 0.000000 6.945930 -0.233124 1.173260 -4.147975 1.492697 -27.321499 -0.220645 15.288697 30.133167 11.315763 -4.238020 -20.978957 0.000000 0.000000 0.000000 -1.585539 -5.097089 1.416962 -57.812487 -5.403105 -7.713919 -22.520919 -49.020247 11.633923 0.000000 0.000000 0.000000 4.013656 -6.926104 -2.592650 38.973433 9.981474 -2.537535 26.849053 51.939758 17.942704 0.000000 0.000000 0.000000 
0.001510 0.946131 -0.002509 -2.998639 -7.811317 3.543974 1.902626 0.170423 2.274966 1.761505 0.091190 -5.995741 2.356048 6.964453 8.579024 0.000000 0.000000 0.000000 -0.452822 0.025735 -0.098699 1.345322 -0.246974 -5.087049 1.563256 -3.120968 12.087669 0.000000 0.000000 0.000000 6.901151 -0.232278 1.180073 -4.069696 1.475505 -27.340790 -0.396993 14.910015 30.189059 10.514167 -3.923982 -20.271997 0.000000 0.000000 0.000000 -1.587733 -5.017482 1.412742 -58.151541 -5.488627 -7.697151 -21.967291 -49.794208 11.720713 0.000000 0.000000 0.000000 4.356649 -7.941900 -3.031072 37.852210 7.017571 -3.379456 30.002142 52.057362 19.473001 0.000000 0.000000 0.000000 
0.001958 0.946399 -0.001471 -2.844627 -8.244401 3.657415 1.695674 0.181596 2.327729 1.665113 0.104573 -6.133020 2.514534 7.254581 8.807220 0.000000 0.000000 0.000000 -0.700805 0.034386 -0.061241 1.349960 -0.250732 -5.382861 1.790799 -2.808105 12.215019 0.000000 0.000000 0.000000 6.990623 -0.250205 1.319403 -4.213452 1.503459 -27.351222 -0.754023 14.790703 30.063383 10.276733 -3.844969 -20.191308 0.000000 0.000000 0.000000 -1.997595 -5.116930 1.423893 -58.125335 -5.448177 -7.653386 -21.473073 -50.710929 11.833917 0.000000 0.000000 0.000000 4.532975 -8.911969 -3.455580 37.035909 5.321898 -3.804848 33.934790 53.707111 22.292958 0.000000 0.000000 0.000000 
0.002164 0.946564 -0.000764 -2.633566 -8.257461 3.738376 1.605356 0.178638 2.271318 1.376436 0.126139 -6.174018 2.479178 7.213679 8.931229 0.000000 0.000000 0.000000 -0.719094 0.033966 -0.044845 0.934836 -0.238421 -5.554102 1.783349 -2.828253 12.217790 0.000000 0.000000 0.000000 6.755853 -0.253016 1.381653 -4.048049 1.468007 -27.337021 -0.860803 14.511417 29.828376 9.544381 -3.510241 -19.560224 0.000000 0.000000 0.000000 -2.236985 -5.022717 1.378127 -58.439610 -5.698793 -7.513301 -20.332795 -50.915663 11.405379 0.000000 0.000000 0.000000 4.268734 -9.446928 -3.683324 37.137329 3.499743 -4.253684 41.238959 56.071998 27.834777 0.000000 0.000000 0.000000 
0.001993 0.946614 -0.000571 -2.663827 -8.436503 3.915448 1.595167 0.172524 2.199337 1.427902 0.130091 -6.314044 2.558756 7.355732 9.027877 0.000000 0.000000 0.000000 -0.803665 0.057233 -0.261275 1.132434 -0.243947 -5.516006 1.869463 -2.703822 12.251909 0.000000 0.000000 0.000000 6.562770 -0.262968 1.489763 -4.066274 1.469395 -27.253389 -0.810450 14.467312 29.596323 9.389330 -3.383346 -19.769422 0.000000 0.000000 0.000000 -2.663027 -5.190823 1.401251 -58.609527 -5.617405 -7.516987 -20.151247 -50.593858 11.271637 0.000000 0.000000 0.000000 4.789193 -9.624803 -3.781360 37.821343 3.496829 -4.318503 51.261088 59.468011 36.664960 0.000000 0.000000 0.000000 
0.001455 0.946334 -0.000729 -2.636613 -8.859583 4.193314 1.679219 0.131419 1.733984 1.191360 0.125707 -5.936470 2.799259 7.724333 8.936805 0.000000 0.000000 0.000000 -0.800152 0.086690 -0.594493 1.070586 -0.240329 -5.561225 2.034867 -2.414133 12.167510 0.000000 0.000000 0.000000 6.323884 -0.274423 1.624576 -4.204241 1.495865 -27.417321 -0.436562 14.694125 29.685638 9.289855 -3.258047 -20.101537 0.000000 0.000000 0.000000 -2.470759 -5.464020 1.522162 -59.425121 -6.298796 -7.304144 -19.380202 -49.406101 10.670998 0.000000 0.000000 0.000000 5.449150 -8.729780 -3.419502 40.017000 4.409144 -4.252383 66.801707 61.371610 49.952434 0.000000 0.000000 0.000000 
0.000657 0.945945 -0.001133 -2.727078 -9.009766 4.319656 1.895241 0.120880 1.657080 1.046682 0.139235 -6.006499 2.886839 7.853451 8.858662 0.000000 0.000000 0.000000 -0.836337 0.097287 -0.695271 1.387667 -0.252543 -5.661233 2.101467 -2.286674 12.128797 0.000000 0.000000 0.000000 5.782874 -0.277618 1.796182 -3.904787 1.426883 -27.010281 -0.056973 15.271749 29.298656 9.622468 -3.247863 -20.854850 0.000000 0.000000 0.000000 -2.685571 -6.326009 1.779846 -59.884575 -6.275816 -7.372995 -19.278066 -47.835387 10.143184 0.000000 0.000000 0.000000 7.141591 -7.549248 -2.905556 42.469782 6.133180 -3.934036 86.134045 60.476067 66.216982 0.000000 0.000000 0.000000 
-0.000200 0.945407 -0.001750 -2.897434 -9.594458 4.515648 2.016062 0.113479 1.570417 1.136553 0.135748 -6.076030 3.203215 8.354118 8.793109 0.000000 0.000000 0.000000 -0.670887 0.102913 -0.841309 1.441133 -0.254484 -5.891588 2.375030 -1.836471 12.095371 0.000000 0.000000 0.000000 5.744309 -0.301156 2.046379 -4.080070 1.460863 -27.313469 0.487403 16.206308 29.571635 10.304669 -3.369013 -22.074828 0.000000 0.000000 0.000000 -2.148926 -7.257691 2.133072 -60.827788 -7.058934 -7.207576 -18.871824 -46.447322 9.584988 0.000000 0.000000 0.000000 8.237857 -5.590600 -1.967423 45.842765 9.410705 -2.975775 99.781223 57.765076 77.444258 0.000000 0.000000 0.000000 
-0.000980 0.944820 -0.002665 -2.953495 -9.890395 4.596075 2.161381 0.106807 1.505094 1.025348 0.144613 -6.102842 3.366234 8.604809 8.676088 0.000000 0.000000 0.000000 -0.837091 0.091395 -0.618752 1.912942 -0.274483 -6.571344 2.560760 -1.579678 12.221275 0.000000 0.000000 0.000000 5.292088 -0.302041 2.210253 -4.078919 1.451198 -26.872915 1.067068 16.906974 29.106988 10.318671 -3.219650 -22.374371 0.000000 0.000000 0.000000 -2.246097 -8.391738 2.491528 -61.680953 -7.093923 -7.307369 -18.121041 -45.819941 9.040850 0.000000 0.000000 0.000000 9.369758 -2.547800 -0.473921 49.689036 13.236182 -1.424391 106.230674 56.620653 83.824502 0.000000 0.000000 0.000000 
-0.001602 0.944807 -0.004016 -3.109256 -10.093357 4.573063 2.382598 0.091545 1.333393 0.986959 0.130910 -5.784061 3.495803 8.807082 8.595349 0.000000 0.000000 0.000000 -0.811400 0.092320 -0.643171 2.237554 -0.280338 -6.610626 2.692481 -1.412696 12.330067 0.000000 0.000000 0.000000 5.498519 -0.319187 2.336903 -4.463520 1.531357 -26.894943 1.595397 18.309284 29.244865 11.363585 -3.454005 -23.506473 0.000000 0.000000 0.000000 -1.984802 -9.715253 2.904616 -62.552377 -8.160083 -7.036563 -17.016560 -45.833120 8.388192 0.000000 0.000000 0.000000 9.484501 0.763499 1.212738 53.714815 20.159339 2.119998 107.748888 60.899925 91.647977 0.000000 0.000000 0.000000 
-0.002077 0.944882 -0.005795 -3.051105 -10.179667 4.426999 2.455625 0.083648 1.224464 0.819373 0.129353 -5.498630 3.533333 8.868239 8.593182 0.000000 0.000000 0.000000 -1.104200 0.106233 -0.640263 2.728715 -0.289759 -6.559477 2.743990 -1.350493 12.390739 0.000000 0.000000 0.000000 5.261182 -0.328111 2.569412 -4.650130 1.571150 -26.760326 2.140092 19.767104 29.196833 12.001417 -3.426556 -24.430510 0.000000 0.000000 0.000000 -1.648371 -11.303777 3.397477 -63.660247 -9.992296 -6.386709 -15.738353 -46.878533 7.829206 0.000000 0.000000 0.000000 9.193124 4.669565 3.128365 57.159027 27.828339 6.949593 104.643030 68.753262 97.434137 0.000000 0.000000 0.000000 
-0.002607 0.945434 -0.007664 -3.146601 -10.042636 4.359113 2.741187 0.085168 1.284110 0.630188 0.152727 -5.686547 3.421275 8.708332 8.812663 0.000000 0.000000 0.000000 -1.074705 0.101944 -0.610265 2.981737 -0.296731 -6.634433 2.755629 -1.449815 12.667817 0.000000 0.000000 0.000000 5.500186 -0.340770 2.630618 -5.037636 1.657504 -26.564617 2.394954 21.258971 29.079969 13.018287 -3.653512 -25.116750 0.000000 0.000000 0.000000 -1.406284 -12.550044 3.746957 -64.089243 -11.290730 -5.936935 -14.185641 -47.749840 7.012030 0.000000 0.000000 0.000000 8.343841 7.642804 4.491291 59.276270 36.284620 12.891376 90.226403 78.961536 92.969895 0.000000 0.000000 0.000000 
-0.003073 0.945967 -0.009353 -3.116478 -9.661882 4.294091 2.815277 0.061067 0.994311 0.614548 0.138776 -5.352528 3.240596 8.423866 8.879395 0.000000 0.000000 0.000000 -1.075972 0.084981 -0.413975 3.071889 -0.303104 -6.996175 2.659804 -1.727611 12.974174 0.000000 0.000000 0.000000 5.625795 -0.347762 2.663955 -5.487516 1.760971 -26.591649 2.663665 22.501757 29.155458 13.705170 -3.763972 -25.443984 0.000000 0.000000 0.000000 -0.134895 -13.626276 4.151582 -64.827218 -12.966092 -5.458807 -13.000048 -49.932457 6.532722 0.000000 0.000000 0.000000 6.877989 9.881867 5.297134 60.203891 43.732690 18.577108 0.707899 83.858101 13.064379 0.000000 0.000000 0.000000 
-0.003461 0.946619 -0.010669 -3.254089 -8.850864 4.292376 2.973810 0.053651 0.981651 0.844986 0.136674 -5.663335 2.830348 7.790526 9.054899 0.000000 0.000000 0.000000 -0.807911 0.068203 -0.380918 3.047377 -0.312172 -7.031191 2.350464 -2.312142 13.232937 0.000000 0.000000 0.000000 5.758209 -0.361418 2.746741 -5.865775 1.852579 -26.765369 2.891311 23.317506 29.223302 14.590807 -4.100255 -25.456000 0.000000 0.000000 0.000000 1.027368 -14.792803 4.583674 -65.286155 -15.309981 -4.547818 -11.032528 -51.190262 5.503312 0.000000 0.000000 0.000000 4.969320 11.242385 5.501365 60.653176 49.733030 23.602458 -36.526583 73.994397 -17.266100 0.000000 0.000000 0.000000 
-0.003650 0.947179 -0.011673 -3.196266 -8.310406 4.118263 2.859556 0.045432 0.880699 1.091086 0.108216 -5.436403 2.568505 7.386628 9.122362 0.000000 0.000000 0.000000 -0.675674 0.059176 -0.353849 2.816651 -0.312624 -6.787124 2.100235 -2.716027 13.268678 0.000000 0.000000 0.000000 5.618663 -0.367459 2.896306 -6.168225 1.921778 -26.871972 3.097493 23.909161 29.377987 15.093585 -4.277372 -25.403835 0.000000 0.000000 0.000000 1.894563 -15.298514 4.800649 -65.739784 -17.182853 -3.834169 -8.853026 -52.554805 4.391419 0.000000 0.000000 0.000000 3.408279 12.283741 5.565132 61.560067 53.875464 27.697794 -42.488262 64.244234 -18.309884 0.000000 0.000000 0.000000 
